<svg width="58.000000" height="47.000000" viewBox="0 0 58 47" fill="none" xmlns="http://www.w3.org/2000/svg" xmlns:xlink="http://www.w3.org/1999/xlink">
	<desc>
			Created with Pixso.
	</desc>
	<defs/>
	<path id="Exclude" d="M22.4551 4.04102C22.7188 4.05859 22.9805 3.98828 23.2051 3.84375C23.4258 3.69922 23.5996 3.48438 23.6875 3.23047C24.1914 2.25391 24.9531 1.44141 25.8887 0.869141C26.8203 0.300781 27.8906 0 28.9805 0C30.0684 0 31.1406 0.300781 32.0723 0.869141C33.002 1.4375 33.7637 2.25391 34.2715 3.23047C34.3633 3.48438 34.5332 3.69922 34.7539 3.84375C34.9746 3.98828 35.2402 4.05859 35.5059 4.04102C38.5664 4.04102 41.0703 6.24219 41.0703 7.55078C41.0703 8.19727 40.5723 8.49805 39.8848 8.62305C37.5664 9.02539 36.3262 9.93164 34.4961 12.7754C32.4863 15.9512 29.6387 20.3926 29.4941 20.627C29.2598 20.9766 29.127 21.0098 28.9609 21.0098C28.7949 21.0098 28.6699 20.9727 28.4453 20.627C28.291 20.3926 25.4805 15.9512 23.4453 12.7832C21.6621 9.94922 20.3789 9.0293 18.0566 8.62695C17.375 8.50195 16.8711 8.20117 16.8711 7.55469C16.8926 6.24219 19.4102 4.04492 22.4551 4.04492L22.4551 4.04102ZM12.6934 9.96875C15.6309 9.96875 18.7441 11.2422 21.2539 15.1895C22.5312 17.1914 26.8203 23.9805 26.8848 24.1035C26.959 24.2031 26.9961 24.3262 27 24.4531C26.9961 24.582 26.9551 24.709 26.8828 24.8164C26.7969 24.9355 23.2383 30.584 23.1426 30.7402C23.0977 30.8223 23.0293 30.8926 22.9473 30.9414C22.8672 30.9883 22.7754 31.0156 22.6797 31.0156C22.5859 31.0156 22.498 30.9883 22.418 30.9375C22.3398 30.8887 22.2773 30.8145 22.2363 30.7324C22.1484 30.6055 15.3945 19.666 14.0371 17.4297C12.6797 15.1973 10.9277 13.5293 8.14062 13.5293C7.54883 13.5293 7.36914 13.2246 7.36914 12.8828C7.36914 12.041 8.78125 9.96875 12.6895 9.96875L12.6934 9.96875ZM22.8262 47C21.9648 47 21.1191 46.7773 20.3711 46.3457C19.625 45.916 19.002 45.2949 18.5684 44.5449C18.5684 44.5449 7.07422 26.1543 5.51758 23.6914C3.46289 20.3477 2.76367 19.3711 0.902344 19.3711C0.166016 19.3711 0 18.959 0 18.5762C0 17.5039 1.70312 15.8809 4.79883 15.8809C7.13281 15.8809 9.84961 16.8008 12.1973 20.582C12.1973 20.582 17.9375 29.7109 22.2227 36.4785C22.3848 36.7344 22.5137 36.8906 22.7676 36.8906C23.0215 36.8906 23.2012 36.6387 23.293 36.4785C25.4062 33.0762 35.3906 17.1914 36.6797 15.1934C39.1895 11.2461 42.291 9.97266 45.2402 9.97266C49.1484 9.97266 50.5801 12.0449 50.5801 12.8867C50.5801 13.2285 50.3965 13.5332 49.8027 13.5332C47.0137 13.5332 45.2656 15.2051 43.9121 17.4336C42.5566 19.6621 28.082 42.9707 27.0957 44.5566C26.6602 45.3105 26.0391 45.9336 25.2891 46.3613C24.5371 46.791 23.6875 47.0117 22.8262 47ZM57.0938 19.3711C55.2324 19.3711 54.5371 20.3477 52.4785 23.6914C50.9551 26.1543 39.457 44.5449 39.457 44.5449C39.0234 45.2949 38.4023 45.916 37.6543 46.3457C36.9082 46.7773 36.0605 47.0039 35.2031 47C34.416 47 33.6387 46.8145 32.9355 46.457C32.2324 46.0977 31.623 45.5781 31.1582 44.9355C31.0156 44.7852 30.9238 44.5977 30.8906 44.3887C30.9238 44.1816 31.0156 43.9883 31.1582 43.832C31.2539 43.668 45.8027 20.582 45.8027 20.582C48.1777 16.8008 50.875 15.8809 53.2012 15.8809C56.2969 15.8809 58 17.5039 58 18.5762C58 18.959 57.8262 19.3711 57.0977 19.3711L57.0938 19.3711Z" clip-rule="evenodd" fill="#D5C9BE" fill-opacity="1.000000" fill-rule="evenodd"/>
</svg>
