<svg width="32.000000" height="32.000000" viewBox="0 0 32 32" fill="none" xmlns="http://www.w3.org/2000/svg" xmlns:xlink="http://www.w3.org/1999/xlink">
	<desc>
			Created with Pixso.
	</desc>
	<defs>
		<clipPath id="clip65_1275">
			<rect id="Component icons" rx="0.000000" width="31.000000" height="31.000000" transform="translate(0.500000 0.500000)" fill="white" fill-opacity="0"/>
		</clipPath>
	</defs>
	<rect id="Component icons" rx="0.000000" width="31.000000" height="31.000000" transform="translate(0.500000 0.500000)" fill="#FFFFFF" fill-opacity="0"/>
	<g clip-path="url(#clip65_1275)">
		<path id="Vector" d="M9.33 18.66L13.33 18.66L13.33 28L18.66 28L18.66 18.66L22.66 18.66L23.99 13.33L18.66 13.33L18.66 10.66C18.66 10.31 18.8 9.97 19.05 9.72C19.3 9.47 19.64 9.33 19.99 9.33L23.99 9.33L23.99 4L19.99 4C18.23 4 16.53 4.7 15.28 5.95C14.03 7.2 13.33 8.89 13.33 10.66L13.33 13.33L9.33 13.33L9.33 18.66Z" stroke="#D5C9BE" stroke-opacity="1.000000" stroke-width="2.000000" stroke-linejoin="round"/>
	</g>
</svg>
