<svg width="32.000000" height="32.000000" viewBox="0 0 32 32" fill="none" xmlns="http://www.w3.org/2000/svg" xmlns:xlink="http://www.w3.org/1999/xlink">
	<desc>
			Created with Pixso.
	</desc>
	<defs>
		<clipPath id="clip65_1272">
			<rect id="Component icons" rx="0.000000" width="31.000000" height="31.000000" transform="translate(0.500000 0.500000)" fill="white" fill-opacity="0"/>
		</clipPath>
	</defs>
	<rect id="Component icons" rx="0.000000" width="31.000000" height="31.000000" transform="translate(0.500000 0.500000)" fill="#FFFFFF" fill-opacity="0"/>
	<g clip-path="url(#clip65_1272)">
		<path id="Vector" d="M21.33 5.33C24.27 5.33 26.66 7.72 26.66 10.66L26.66 21.33C26.66 24.27 24.27 26.66 21.33 26.66L10.66 26.66C7.72 26.66 5.33 24.27 5.33 21.33L5.33 10.66C5.33 7.72 7.72 5.33 10.66 5.33L21.33 5.33Z" stroke="#D5C9BE" stroke-opacity="1.000000" stroke-width="2.000000" stroke-linejoin="round"/>
		<path id="Vector" d="M16 20C13.79 20 12 18.2 12 16C12 13.79 13.79 12 16 12C18.2 12 20 13.79 20 16C20 18.2 18.2 20 16 20Z" stroke="#D5C9BE" stroke-opacity="1.000000" stroke-width="2.000000" stroke-linejoin="round"/>
		<path id="Vector" d="M22 10L22 10" stroke="#D5C9BE" stroke-opacity="1.000000" stroke-width="2.000000" stroke-linejoin="round" stroke-linecap="round"/>
	</g>
</svg>
