<svg width="32.000000" height="32.000000" viewBox="0 0 32 32" fill="none" xmlns="http://www.w3.org/2000/svg" xmlns:xlink="http://www.w3.org/1999/xlink">
	<desc>
			Created with Pixso.
	</desc>
	<defs>
		<clipPath id="clip65_1274">
			<rect id="Component icons" rx="0.000000" width="31.000000" height="31.000000" transform="translate(0.500000 0.500000)" fill="white" fill-opacity="0"/>
		</clipPath>
	</defs>
	<rect id="Component icons" rx="0.000000" width="31.000000" height="31.000000" transform="translate(0.500000 0.500000)" fill="#FFFFFF" fill-opacity="0"/>
	<g clip-path="url(#clip65_1274)">
		<path id="Vector" d="M23.99 5.33C25.47 5.33 26.66 6.52 26.66 7.99L26.66 23.99C26.66 25.47 25.47 26.66 23.99 26.66L7.99 26.66C6.52 26.66 5.33 25.47 5.33 23.99L5.33 7.99C5.33 6.52 6.52 5.33 7.99 5.33L23.99 5.33Z" stroke="#D5C9BE" stroke-opacity="1.000000" stroke-width="2.000000" stroke-linejoin="round"/>
		<path id="Vector" d="M10.66 14.66L10.66 21.33" stroke="#D5C9BE" stroke-opacity="1.000000" stroke-width="2.000000" stroke-linejoin="round" stroke-linecap="round"/>
		<path id="Vector" d="M10.66 10.66L10.66 10.68" stroke="#D5C9BE" stroke-opacity="1.000000" stroke-width="2.000000" stroke-linejoin="round" stroke-linecap="round"/>
		<path id="Vector" d="M16 21.33L16 14.66" stroke="#D5C9BE" stroke-opacity="1.000000" stroke-width="2.000000" stroke-linejoin="round" stroke-linecap="round"/>
		<path id="Vector" d="M21.33 21.33L21.33 17.33C21.33 16.62 21.05 15.94 20.55 15.44C20.05 14.94 19.37 14.66 18.66 14.66C17.95 14.66 17.28 14.94 16.78 15.44C16.28 15.94 16 16.62 16 17.33" stroke="#D5C9BE" stroke-opacity="1.000000" stroke-width="2.000000" stroke-linejoin="round" stroke-linecap="round"/>
	</g>
</svg>
