<svg width="32.000000" height="32.000000" viewBox="0 0 32 32" fill="none" xmlns="http://www.w3.org/2000/svg" xmlns:xlink="http://www.w3.org/1999/xlink">
	<desc>
			Created with Pixso.
	</desc>
	<defs>
		<clipPath id="clip65_1273">
			<rect id="Component icons" rx="0.000000" width="31.000000" height="31.000000" transform="translate(0.500000 0.500000)" fill="white" fill-opacity="0"/>
		</clipPath>
	</defs>
	<rect id="Component icons" rx="0.000000" width="31.000000" height="31.000000" transform="translate(0.500000 0.500000)" fill="#FFFFFF" fill-opacity="0"/>
	<g clip-path="url(#clip65_1273)">
		<path id="Vector" d="M12 15.99C10.94 15.99 9.91 16.31 9.03 16.89C8.16 17.48 7.47 18.31 7.07 19.29C6.66 20.26 6.56 21.33 6.76 22.37C6.97 23.4 7.48 24.35 8.23 25.1C8.97 25.84 9.92 26.35 10.96 26.56C11.99 26.76 13.06 26.66 14.04 26.25C15.01 25.85 15.84 25.17 16.43 24.29C17.02 23.41 17.33 22.38 17.33 21.33L17.33 5.33C17.33 7.09 18.03 8.79 19.28 10.04C20.53 11.29 22.23 11.99 24 11.99" stroke="#D5C9BE" stroke-opacity="1.000000" stroke-width="2.000000" stroke-linejoin="round" stroke-linecap="round"/>
	</g>
</svg>
